<svg width="267" height="267" viewBox="0 0 267 267" fill="none" xmlns="http://www.w3.org/2000/svg">
<path d="M155.061 72.286L147.911 80.2941L105.867 102.889C105.867 102.889 100.147 105.177 99.0025 106.322C97.8583 107.466 97.8583 116.904 97.5723 118.048C97.2863 119.192 97.2863 143.503 97.2863 143.503L50.0944 198.131C50.0944 198.131 51.2383 203.566 53.8126 205.568C56.3867 207.57 92.4243 231.881 92.4243 231.881H133.896L189.668 162.952L174.51 150.081C174.51 150.081 181.374 144.933 180.516 138.641C180.516 138.641 182.518 131.49 182.232 124.626C182.232 124.626 192.242 118.048 192.814 107.179L195.674 104.606L198.821 109.182L207.115 96.5973L214.265 98.313C214.265 98.313 234 68.854 236.86 61.7038C236.86 61.7038 216.553 43.6849 197.963 35.1045C179.372 26.5236 161.353 35.1045 161.353 35.1045L149.055 56.5551L155.919 61.7038L151.343 69.1401L155.061 72.286Z" fill="#F6AF62"/>
<path d="M174.509 150.081C174.509 150.081 174.654 149.965 174.868 149.783C170.093 147.649 165.735 144.953 161.253 142.041C158.823 140.462 155.666 138.627 153.57 137.603C153.204 137.424 152.98 137.317 152.812 137.252C152.412 137.415 151.947 137.495 151.525 137.631C148.105 140.716 142.292 143.389 140.849 147.775C140.579 148.594 140.131 149.268 139.583 149.828C139.474 149.973 139.366 150.117 139.257 150.262C139.24 150.286 139.217 150.303 139.2 150.326L138.95 150.65C137.845 152.626 137.72 155.002 137.327 157.461C137.14 158.63 136.278 159.507 135.222 160.007C134.688 161.075 134.078 162.108 133.299 163.062C133.063 163.351 132.797 163.592 132.539 163.846C129.426 167.755 124.239 169.666 119.091 168.738C115.804 168.146 115.411 163.96 117.268 161.835C117.375 161.712 117.513 161.624 117.629 161.513C117.737 161.356 117.816 161.18 117.948 161.041C118.202 160.776 118.717 160.426 119.241 160.062C119.419 159.9 119.622 159.761 119.775 159.574C120.551 158.633 120.99 157.577 121.918 156.731C122.045 156.616 122.188 156.573 122.32 156.476C124.422 149.239 124.875 142.13 124.844 134.36C124.837 132.786 125.452 131.508 126.398 130.576C127.391 128.349 128.676 125.366 129.129 123.441C129.273 122.828 129.497 122.316 129.752 121.849C129.897 121.284 130.068 120.72 130.232 120.156C128.195 118.97 126.146 117.833 124.509 116.091C124.328 116.252 124.165 116.421 123.955 116.569C123.359 116.99 122.714 117.483 122.071 117.975C121.967 118.774 121.565 119.572 120.727 120.268C119.039 121.672 117.878 123.527 116.319 125.063C114.812 126.546 113.143 127.833 111.663 129.35C109.087 131.991 106.526 134.547 103.553 136.651C103.437 136.766 103.331 136.894 103.213 137.005C102.892 137.31 102.554 137.556 102.21 137.767C101.319 138.899 100.443 140.044 99.5624 141.189C98.9054 142.043 98.121 142.615 97.2867 142.998C97.2867 143.312 97.2867 143.503 97.2867 143.503L50.0944 198.131C50.0944 198.131 51.2385 203.566 53.8126 205.568C56.3867 207.569 92.4243 231.881 92.4243 231.881H133.896L189.668 162.952L174.509 150.081Z" fill="#008753"/>
<path d="M197.962 35.1044C179.372 26.5235 161.353 35.1044 161.353 35.1044L149.054 56.555L155.919 61.7037L151.343 69.1395L154.671 71.9559C157.666 71.6089 160.912 72.1469 164.229 73.9434C164.472 74.0754 164.715 74.2073 164.959 74.3393C166.563 74.6894 168.153 75.281 169.673 76.2117C172.358 77.8565 174.788 79.5385 177.07 81.2559C177.319 81.4046 177.599 81.4874 177.838 81.6554C182.634 85.0212 185.9 88.4258 189.399 93.0615C190.377 94.3572 191.3 95.6896 192.22 97.0265C192.954 98.0921 196.44 102.606 193.148 98.4864C195.406 101.312 196.913 104.049 197.555 107.341L198.821 109.182L207.115 96.5967L214.265 98.3129C214.265 98.3129 234 68.8539 236.86 61.7037C236.86 61.7037 216.553 43.6848 197.962 35.1044Z" fill="#EDEBE0"/>
<path d="M84.5711 170.606L60.2544 198.552L93.3769 223.375L116.641 195.03L84.5711 170.606Z" fill="#F4F3F2"/>
<path d="M122.755 118.048C102.229 138.21 82.5965 159.212 64.6537 181.746C59.5443 188.164 54.3312 194.597 49.7058 201.379C49.6461 201.466 49.7184 201.534 49.801 201.541C49.7886 201.586 49.7969 201.637 49.8462 201.687C55.9843 207.9 63.2236 213.256 70.3183 218.304C77.3105 223.279 84.6614 228.252 92.3463 232.089C93.0878 232.459 93.8243 231.471 93.0478 231.004C89.3586 228.781 85.5485 226.767 81.8783 224.506C78.2098 222.245 74.6122 219.875 71.062 217.432C63.7999 212.437 57.0964 206.797 50.0972 201.46C50.062 201.433 50.0225 201.423 49.9837 201.422C54.5551 195.841 58.8654 190.043 63.4068 184.435C68.0039 178.759 72.6687 173.137 77.4269 167.596C86.721 156.774 96.3504 146.24 106.294 136.017C111.965 130.187 117.713 124.417 123.637 118.845C124.219 118.298 123.275 117.536 122.755 118.048Z" fill="#5D5D5D"/>
<path d="M156.146 231.613C153.114 231.36 150.062 231.537 147.028 231.542C143.988 231.547 140.949 231.553 137.909 231.558C131.887 231.569 125.864 231.58 119.842 231.59C107.74 231.611 95.638 231.646 83.5362 231.694C76.6706 231.721 69.799 231.649 62.9353 231.966C62.7806 231.973 62.7804 232.355 62.9353 232.362C75.0288 232.921 87.1435 232.648 99.2402 232.696C111.342 232.743 123.443 232.744 135.545 232.766C138.979 232.772 142.412 232.778 145.846 232.784C149.273 232.79 152.723 233 156.146 232.715C156.577 232.679 156.578 231.649 156.146 231.613Z" fill="#5D5D5D"/>
<path d="M190.285 161.231C174.994 179.534 159.717 197.849 144.464 216.184C142.326 218.754 140.208 221.343 138.1 223.937C135.951 226.582 133.691 229.211 131.882 232.104C131.784 232.261 132.017 232.391 132.137 232.282C134.537 230.085 136.724 227.617 138.845 225.096C137.405 226.901 135.965 228.706 134.531 230.516C134.411 230.667 134.685 230.785 134.796 230.655C149.456 213.369 163.835 195.845 178.249 178.352C182.309 173.425 186.593 168.621 190.455 163.538C190.511 163.464 190.544 163.388 190.556 163.313C190.931 162.864 191.307 162.415 191.682 161.966C192.322 161.199 190.872 160.527 190.285 161.231Z" fill="#5D5D5D"/>
<path d="M93.9221 222.739C91.3021 220.756 88.2066 219.259 85.4431 217.466C82.4045 215.496 79.4239 213.439 76.5062 211.293C70.8894 207.161 65.539 202.722 60.3003 198.123C60.1921 198.028 60.0115 198.169 60.1245 198.282C65.0897 203.242 70.4847 207.812 76.1038 212.016C78.7693 214.011 81.4892 215.932 84.2592 217.778C87.1481 219.703 90.1829 221.999 93.3767 223.375C93.7591 223.54 94.3647 223.074 93.9221 222.739Z" fill="#5D5D5D"/>
<path d="M82.7196 172.895C78.8959 176.865 75.4007 181.206 71.7783 185.361C68.2735 189.381 64.768 193.4 61.4067 197.542C61.3765 197.579 61.4448 197.62 61.4745 197.588C65.2918 193.588 68.9605 189.452 72.6345 185.32C76.1824 181.329 79.9237 177.438 83.2686 173.276C83.5135 172.971 82.9619 172.644 82.7196 172.895Z" fill="#5D5D5D"/>
<path d="M113.65 191.972C111.755 189.976 109.145 188.394 106.962 186.718C104.626 184.925 102.285 183.135 99.9175 181.383C95.423 178.056 91.0021 174.492 86.2791 171.494C86.2249 171.46 86.152 171.534 86.2037 171.582C90.39 175.484 95.0768 178.953 99.5518 182.517C101.769 184.284 104.007 186.028 106.247 187.764C108.399 189.431 110.55 191.49 112.931 192.811C113.477 193.115 114.113 192.46 113.65 191.972Z" fill="#5D5D5D"/>
<path d="M115.675 195.362C111.865 199.532 108.378 204.039 104.764 208.379C101.051 212.838 97.3353 217.297 93.8226 221.917C93.7936 221.956 93.8612 221.996 93.8905 221.964C97.7515 217.827 101.434 213.529 105.11 209.226C108.889 204.804 112.865 200.484 116.435 195.89C116.765 195.465 116.004 195.004 115.675 195.362Z" fill="#5D5D5D"/>
<path d="M113.21 194.922C105.164 195.071 97.1184 195.266 89.0727 195.454C88.5341 192.347 87.9706 189.243 87.4195 186.138C87.0533 184.074 86.6694 182.013 86.2799 179.952C85.8953 177.917 85.6424 175.774 84.9858 173.808C84.9177 173.604 84.5746 173.643 84.5753 173.868C84.5846 177.858 85.5676 182.045 86.1649 185.987C86.6449 189.154 87.1132 192.323 87.6037 195.488C83.7084 195.578 79.8124 195.668 75.9183 195.804C73.8648 195.876 71.8121 195.969 69.7594 196.052C67.8516 196.129 65.7233 196.007 63.8838 196.561C63.7215 196.61 63.7262 196.825 63.8907 196.868C65.6535 197.319 67.6494 197.134 69.4579 197.133C71.513 197.13 73.5676 197.136 75.6222 197.126C79.6929 197.107 83.7638 197.026 87.8338 196.952C87.894 197.334 87.9528 197.717 88.0135 198.1C88.6422 202.028 89.2673 205.957 89.9096 209.884C90.2489 211.956 90.5883 214.029 90.9274 216.102C91.2053 217.8 91.2655 219.73 92.0237 221.281C92.2207 221.685 93.051 221.597 93.1136 221.127C93.347 219.376 92.7585 217.476 92.4718 215.741C92.1296 213.667 91.7869 211.595 91.4447 209.522C90.7777 205.483 90.0912 201.448 89.4099 197.413C89.3823 197.25 89.3532 197.087 89.3256 196.924C96.8606 196.787 104.396 196.653 111.931 196.485C112.036 196.525 112.16 196.545 112.308 196.534C112.62 196.508 112.931 196.483 113.244 196.458C114.301 196.373 114.291 194.901 113.21 194.922Z" fill="#5D5D5D"/>
<path d="M83.6811 170.977C79.5832 175.502 75.6385 180.183 71.5866 184.753C67.6896 189.149 63.4312 193.445 60.019 198.234C59.91 198.387 60.1567 198.518 60.2748 198.412C64.7098 194.418 68.5658 189.646 72.5589 185.217C76.5808 180.758 80.7238 176.391 84.6967 171.891C85.299 171.208 84.2455 170.353 83.6811 170.977Z" fill="#5D5D5D"/>
<path d="M117.846 193.945C112.233 189.862 106.634 185.759 101.028 181.666C98.2626 179.647 95.4998 177.622 92.7158 175.63C90.2255 173.847 87.6088 171.452 84.663 170.498C84.6025 170.478 84.5326 170.547 84.5713 170.606C86.2752 173.162 89.4416 174.968 91.8615 176.796C94.5872 178.855 97.3352 180.886 100.086 182.911C105.593 186.966 111.116 190.999 116.641 195.029C117.431 195.606 118.722 194.582 117.846 193.945Z" fill="#5D5D5D"/>
<path d="M116.084 193.75C112.401 198.739 108.887 203.78 104.871 208.525C102.824 210.944 100.714 213.307 98.5883 215.659C97.5978 216.754 96.5917 217.836 95.577 218.909C94.726 219.81 93.752 220.692 92.9884 221.689C90.564 219.683 87.914 217.902 85.3903 216.028L77.0296 209.819C74.3248 207.811 71.6201 205.802 68.9151 203.793C67.6013 202.817 66.2744 201.86 64.9494 200.899C63.617 199.933 62.2339 198.799 60.7195 198.133C60.4844 198.03 60.0146 198.261 60.2545 198.552C62.2572 200.978 65.3625 202.851 67.8657 204.738C70.633 206.824 73.401 208.911 76.1693 210.998C78.856 213.023 81.5426 215.048 84.229 217.073C86.9595 219.132 89.6295 221.356 92.4884 223.23C93.1217 223.646 93.9979 222.851 93.6119 222.253C95.8264 220.732 97.7423 218.443 99.5961 216.566C101.782 214.351 103.866 212.035 105.887 209.67C109.988 204.87 114.149 199.85 117.547 194.519C118.122 193.617 116.653 192.979 116.084 193.75Z" fill="#5D5D5D"/>
<path d="M130.576 119.845C129.398 119.104 126.221 117.09 125.012 116.412C124.753 116.267 124.385 116.61 124.652 116.832C125.748 117.741 128.866 119.91 130.017 120.76C130.177 120.444 130.37 120.136 130.576 119.845Z" fill="#5D5D5D"/>
<path d="M190.154 160.573C188.385 158.997 186.237 157.769 184.286 156.432L177.757 151.959C173.573 149.091 169.388 146.223 165.203 143.356C161.577 140.871 157.946 138.392 154.312 135.918C153.855 136.216 153.388 136.501 152.91 136.764C160.156 141.748 167.407 146.726 174.662 151.697C177.089 153.36 179.516 155.023 181.943 156.687C184.336 158.326 186.701 160.263 189.278 161.595C189.917 161.924 190.791 161.141 190.154 160.573Z" fill="#5D5D5D"/>
<path d="M124.093 115.828C113.419 125.818 103.313 136.499 93.4327 147.269C83.6223 157.962 74.1147 168.937 64.9863 180.218C62.3601 183.464 59.7762 186.745 57.2549 190.072C54.7972 193.314 51.8543 196.593 50.0069 200.224C49.9429 200.35 50.1097 200.458 50.2099 200.365C50.2458 200.332 50.2796 200.295 50.3158 200.262C50.2725 200.322 50.2627 200.398 50.3222 200.477C52.8899 203.874 56.1624 206.868 59.2872 209.744C62.5045 212.705 65.8432 215.524 69.3078 218.191C76.1908 223.491 83.5368 228.379 91.2627 232.368C91.7858 232.638 92.3478 232.321 92.4295 231.766C92.4716 231.476 92.5142 231.186 92.5565 230.897C92.6636 230.167 91.391 230.022 91.1437 230.653C83.859 226.548 76.8135 222.153 70.1442 217.084C66.7296 214.49 63.4021 211.771 60.1858 208.935C56.9687 206.099 53.9865 202.97 50.7144 200.204L50.7118 200.208C50.6168 200.12 50.4681 200.138 50.3722 200.207C52.8749 197.845 54.905 194.859 57.0727 192.195C59.3586 189.385 61.6552 186.584 63.9521 183.782C68.6762 178.021 73.4358 172.29 78.2937 166.641C87.7767 155.611 97.5879 144.864 107.708 134.416C113.465 128.473 119.397 122.715 125.251 116.869C125.991 116.13 124.79 115.175 124.093 115.828Z" fill="#5D5D5D"/>
<path d="M99.6878 224.79C99.3135 224.286 98.6724 223.99 98.151 223.653C97.5311 223.251 96.9171 222.815 96.2353 222.524C96.0721 222.454 95.8929 222.615 96.0266 222.767C96.5081 223.315 97.113 223.749 97.6819 224.2C98.1795 224.594 98.6545 225.081 99.2606 225.29C99.5319 225.383 99.8832 225.053 99.6878 224.79Z" fill="#5D5D5D"/>
<path d="M102.225 222.429C100.758 222.532 99.4972 221.927 98.7866 220.607C98.7219 220.486 98.5039 220.562 98.5417 220.7C98.9801 222.305 100.687 223.39 102.328 223.114C102.756 223.043 102.649 222.399 102.225 222.429Z" fill="#5D5D5D"/>
<path d="M105.68 219.101C105.184 218.69 104.6 218.373 104.057 218.027C103.47 217.653 102.879 217.255 102.243 216.969C102.149 216.927 102.041 217.024 102.121 217.111C102.585 217.616 103.147 218.038 103.682 218.465C104.183 218.865 104.669 219.307 105.215 219.642C105.547 219.845 106.02 219.383 105.68 219.101Z" fill="#5D5D5D"/>
<path d="M108.931 215.394C108.46 214.954 107.843 214.654 107.296 214.318C106.698 213.95 106.116 213.554 105.467 213.282C105.358 213.235 105.239 213.342 105.328 213.444C105.782 213.963 106.338 214.377 106.869 214.816C107.363 215.224 107.842 215.7 108.408 216.003C108.793 216.21 109.297 215.737 108.931 215.394Z" fill="#5D5D5D"/>
<path d="M111.221 211.264C110.317 210.583 109.28 210.045 108.282 209.515C108.082 209.409 107.794 209.667 108.004 209.84C108.863 210.549 109.748 211.295 110.711 211.86C111.075 212.073 111.612 211.559 111.221 211.264Z" fill="#5D5D5D"/>
<path d="M113.405 207.573C112.768 207.161 112.141 206.696 111.463 206.355C111.315 206.28 111.149 206.444 111.271 206.577C111.78 207.129 112.398 207.596 112.964 208.087C113.326 208.402 113.851 207.861 113.405 207.573Z" fill="#5D5D5D"/>
<path d="M114.95 204.282C114.803 204.3 114.655 204.318 114.507 204.335C114.178 204.376 114.177 204.902 114.507 204.942C114.655 204.96 114.803 204.978 114.95 204.996C115.186 205.025 115.471 204.922 115.471 204.639C115.471 204.359 115.187 204.253 114.95 204.282Z" fill="#5D5D5D"/>
<path d="M156.233 71.2979C152.935 73.9996 149.732 77.4332 146.994 80.7971C138.964 84.5211 130.97 88.2529 123.167 92.4904C116.842 95.9257 110.386 99.4555 104.384 103.573C99.721 104.261 96.5615 109.072 97.7411 113.714C97.8446 114.12 98.5109 113.963 98.4338 113.542C98.0036 111.2 98.4559 109.039 99.5722 107.312C100.041 106.013 101.352 105.194 102.528 104.551C102.735 104.438 102.948 104.338 103.165 104.248C103.366 104.155 103.571 104.066 103.782 103.986C103.754 104.006 103.726 104.027 103.698 104.047C104.383 103.817 105.104 103.675 105.834 103.579C111.855 100.059 117.785 96.3617 123.925 93.057C132.071 88.6732 140.399 84.4585 148.951 80.9958C149.578 80.7417 149.001 79.866 148.415 80.1375C148.281 80.1998 148.148 80.262 148.013 80.3241C151.175 77.843 154.381 74.9893 156.983 72.0007C157.443 71.4719 156.715 70.9031 156.233 71.2979Z" fill="#5D5D5D"/>
<path d="M196.931 104.909C194.189 97.9212 190.43 90.6703 183.288 84.2569C176.807 78.4366 167.063 73.0098 156.564 71.5225C156.452 71.5065 156.459 71.6062 156.565 71.6305C167.118 74.0245 176.303 78.9352 182.738 85.0586C189.259 91.2655 192.798 98.0809 195.369 104.76C195.589 105.33 197.165 105.506 196.931 104.909Z" fill="#5D5D5D"/>
<path d="M191.541 107.253C190.746 112.346 188.747 116.551 185.26 120.195C181.568 124.055 176.992 126.663 172.201 128.702C162.693 132.748 152.199 135.043 144.562 142.72C141.441 145.857 138.015 150.684 138.178 155.499C138.18 155.534 138.227 155.528 138.237 155.501C139.084 153.099 139.719 150.727 141.018 148.527C142.253 146.436 143.829 144.569 145.56 142.923C149.422 139.25 154.1 136.807 158.923 134.839C166.457 131.765 174.597 129.584 181.332 124.89C181.249 124.973 181.195 125.089 181.199 125.237C181.423 133.975 177.712 142.118 170.656 146.866C170.581 146.917 170.663 147.013 170.734 146.973C177.974 142.86 182.912 133.959 182.187 125.162C182.154 124.764 181.741 124.658 181.46 124.8C183.217 123.564 184.878 122.158 186.405 120.514C189.646 117.025 192.384 112.329 192.54 107.305C192.557 106.747 191.623 106.727 191.541 107.253Z" fill="#5D5D5D"/>
<path d="M135.878 97.1348C134.239 99.4523 133.19 102.274 132.524 105.017C131.916 107.526 131.294 110.618 131.859 113.167C131.963 113.63 132.67 113.484 132.715 113.062C132.867 111.658 132.69 110.215 132.787 108.798C132.882 107.412 133.073 106.034 133.368 104.676C133.94 102.047 134.962 99.6499 136 97.1812C136.03 97.1112 135.914 97.0831 135.878 97.1348Z" fill="#5D5D5D"/>
<path d="M137.996 141.481C137.978 141.434 137.896 141.446 137.901 141.501C138.218 145.001 138.423 148.42 137.882 151.904C137.33 155.456 135.991 158.432 134.534 161.63C134.201 162.36 135.218 162.67 135.6 162.119C139.378 156.664 140.42 147.75 137.996 141.481Z" fill="#5D5D5D"/>
<path d="M168.471 131.188C168.447 131.134 168.336 131.11 168.323 131.188C167.932 133.532 168.072 135.607 166.771 137.751C165.579 139.715 163.938 140.691 161.991 141.758C161.634 141.954 161.897 142.458 162.268 142.349C164.297 141.751 166.157 140.029 167.277 138.271C168.494 136.359 169.451 133.366 168.471 131.188Z" fill="#5D5D5D"/>
<path d="M136.211 158.688C133.823 162.801 130.64 166.133 126.023 167.39C123.825 167.988 121.201 168.226 118.992 167.536C117.349 167.023 116.204 165.781 116.746 163.887C117.154 162.461 118.301 161.501 119.303 160.519C122.207 157.673 123.616 154.021 124.203 149.977C124.589 147.316 124.646 144.619 124.727 141.934C124.808 139.235 125.012 136.452 124.752 133.762C124.748 133.718 124.674 133.702 124.665 133.751C123.578 139.993 124.608 146.544 122.896 152.695C122.04 155.77 120.518 158.153 118.243 160.292C116.815 161.635 115.181 163.382 115.611 165.576C116.517 170.196 124.11 169.186 127.097 168.215C131.411 166.812 135.36 163.43 136.829 158.931C136.947 158.569 136.383 158.39 136.211 158.688Z" fill="#5D5D5D"/>
<path d="M133.058 109.422C131.988 113.603 130.85 117.656 129.279 121.685C127.663 125.831 125.837 129.912 124.378 134.117C124.294 134.358 124.71 134.501 124.815 134.283C126.768 130.245 128.448 126.047 130.168 121.905C131.797 117.983 133.525 113.796 133.82 109.515C133.848 109.11 133.155 109.044 133.058 109.422Z" fill="#5D5D5D"/>
<path d="M180.045 136.871C180.022 136.779 179.846 136.793 179.856 136.894C180.135 139.487 179.673 142.11 178.486 144.437C177.904 145.577 177.185 146.665 176.303 147.594C175.48 148.461 174.434 149.027 173.596 149.854C173.198 150.248 173.636 150.932 174.169 150.74C176.502 149.898 178.396 147.185 179.35 145.001C180.477 142.423 180.721 139.598 180.045 136.871Z" fill="#5D5D5D"/>
<path d="M98.2462 111.683C98.2433 111.603 98.1217 111.607 98.1122 111.683C97.4645 116.903 97.4616 122.11 97.5404 127.364C97.6198 132.653 97.5918 137.959 97.7955 143.244C97.8233 143.972 99.041 143.977 99.0398 143.244C99.0262 132.735 98.6115 122.184 98.2462 111.683Z" fill="#5D5D5D"/>
<path d="M194.722 100.289C194.61 99.8078 193.804 99.8306 193.678 100.289C193.366 101.43 193.348 102.605 192.957 103.743C192.494 105.09 191.887 106.363 190.955 107.447C190.922 107.485 190.973 107.521 191.009 107.496C193.197 105.965 195.39 103.158 194.722 100.289Z" fill="#5D5D5D"/>
<path d="M198.921 107.107C193.805 93.0842 182.918 81.207 169.236 75.124C165.608 73.5104 161.727 72.1377 157.755 71.7513C155.654 70.941 153.213 70.4194 151.034 70.0577C150.991 70.0125 150.951 69.9665 150.907 69.9218C150.889 69.9039 150.857 69.9251 150.869 69.948C150.885 69.9784 150.903 70.0079 150.919 70.0384C150.821 70.022 150.719 70.0039 150.621 69.9882C150.535 69.9744 150.449 70.091 150.551 70.1379C150.735 70.2216 150.926 70.3059 151.115 70.3896C151.442 70.9824 151.784 71.5633 152.148 72.137C152.558 72.7824 152.949 73.5082 153.504 74.0377C153.762 74.2845 154.189 73.9989 154.03 73.6724C153.668 72.9281 152.998 72.2627 152.462 71.6352C152.151 71.2704 151.835 70.9163 151.513 70.5664C153.693 71.515 156.166 72.4224 158.42 72.7822C158.567 72.8057 158.712 72.7401 158.807 72.6408C162.798 73.9865 166.735 75.2932 170.522 77.2141C174.596 79.2799 178.404 81.8461 181.857 84.8352C188.504 90.5891 193.85 97.8837 197.103 106.06C195.832 105.546 194.38 105.156 193.136 105.004C192.903 104.976 192.739 105.222 192.963 105.374C194.26 106.257 196.082 107.049 197.636 107.443C197.914 108.144 199.196 107.861 198.921 107.107Z" fill="#5D5D5D"/>
<path d="M155.414 61.9436C153.687 64.4182 151.779 66.9624 150.461 69.6828C150.41 69.7882 150.55 69.8879 150.634 69.803C152.794 67.6113 154.586 64.9458 156.381 62.4524C156.787 61.8891 155.783 61.4151 155.414 61.9436Z" fill="#5D5D5D"/>
<path d="M207.599 94.535C206.175 96.6743 204.819 98.83 203.228 100.856C201.658 102.854 199.839 104.653 198.29 106.658C198.168 106.815 198.428 106.92 198.545 106.835C200.551 105.387 202.277 103.379 203.843 101.473C205.515 99.4361 207.136 97.2735 208.401 94.9566C208.678 94.4486 207.895 94.09 207.599 94.535Z" fill="#5D5D5D"/>
<path d="M214.833 97.7332C214.196 95.695 212.967 93.7618 211.879 91.937C210.711 89.979 209.449 88.0791 208.091 86.2474C205.481 82.726 202.559 79.4299 199.355 76.4387C192.833 70.3502 185.211 65.3284 176.964 61.9081C172.25 59.9534 167.445 58.603 162.415 57.7839C162.381 57.7782 162.363 57.8253 162.4 57.8336C179.633 61.7782 195.243 71.5025 206.015 85.5604C207.493 87.4894 208.879 89.4919 210.162 91.5551C211.482 93.6787 212.502 96.0229 213.898 98.0885C214.176 98.5011 215.005 98.2824 214.833 97.7332Z" fill="#5D5D5D"/>
<path d="M214.246 98.4124C212.231 97.6758 209.756 96.956 207.597 96.945C207.564 96.945 207.553 96.9838 207.58 97.0012C209.398 98.1427 211.904 98.8312 213.984 99.2681C214.587 99.3952 214.84 98.6294 214.246 98.4124Z" fill="#5D5D5D"/>
<path d="M209.809 90.7554C209.393 91.1293 209.194 91.7016 208.954 92.198C208.723 92.6777 208.451 93.172 208.346 93.697C208.322 93.8207 208.472 93.8866 208.562 93.81C208.979 93.4569 209.297 92.9852 209.618 92.5471C209.939 92.1097 210.373 91.6526 210.498 91.1157C210.588 90.7264 210.087 90.506 209.809 90.7554Z" fill="#5D5D5D"/>
<path d="M162.87 58.1284C160.891 57.1268 158.263 56.9614 156.07 56.8981C153.607 56.827 151.223 57.1439 148.816 57.6458C148.779 57.6534 148.797 57.7005 148.832 57.6955C151.218 57.3498 153.672 57.3429 156.07 57.5885C158.309 57.8179 160.449 58.5672 162.665 58.8111C163.053 58.8537 163.218 58.3043 162.87 58.1284Z" fill="#5D5D5D"/>
<path d="M156.101 61.5421C153.991 60.016 151.27 58.8376 148.844 57.9112C148.793 57.8914 148.705 57.9528 148.769 57.999C150.844 59.5001 153.299 61.1009 155.695 62.0159C155.972 62.1217 156.444 61.7905 156.101 61.5421Z" fill="#5D5D5D"/>
<path d="M159.086 56.9342C158.432 57.3689 158.035 58.139 157.589 58.7748C157.246 59.2627 156.498 59.9892 156.585 60.6215C156.591 60.6667 156.627 60.6857 156.67 60.6795C157.346 60.5851 157.903 59.7686 158.358 59.3091C158.898 58.7625 159.619 58.228 159.916 57.5081C160.099 57.0636 159.434 56.7029 159.086 56.9342Z" fill="#5D5D5D"/>
<path d="M161.105 35.4646C159.786 37.0782 158.813 39.0774 157.732 40.8595C156.633 42.671 155.534 44.4826 154.435 46.2943C152.254 49.8897 149.846 53.4664 148.03 57.2629C147.884 57.5668 148.304 57.7498 148.493 57.5066C151.142 54.0891 153.323 50.235 155.626 46.5791C156.756 44.7841 157.887 42.9891 159.017 41.1944C160.105 39.4682 161.403 37.7576 162.234 35.8929C162.531 35.2259 161.451 35.041 161.105 35.4646Z" fill="#5D5D5D"/>
<path d="M233.045 69.2231C231.32 71.4445 229.873 73.9441 228.324 76.2921C226.709 78.7396 225.097 81.19 223.491 83.6437C220.353 88.4378 216.962 93.1798 214.192 98.1981C214.065 98.4277 214.404 98.5671 214.547 98.3853C218.098 93.8585 221.16 88.8785 224.366 84.1039C225.945 81.7509 227.52 79.3952 229.091 77.037C230.705 74.6147 232.51 72.2288 233.929 69.6885C234.247 69.1193 233.398 68.7681 233.045 69.2231Z" fill="#5D5D5D"/>
<path d="M132.423 113.695C131.821 111.676 130.832 109.863 130.415 107.763C129.977 105.551 129.924 103.301 130.154 101.063C130.157 101.033 130.103 101.027 130.097 101.056C129.638 103.293 129.526 105.567 129.82 107.836C130.083 109.859 130.519 112.269 131.705 113.968C131.923 114.28 132.549 114.12 132.423 113.695Z" fill="#5D5D5D"/>
<path d="M150.669 196.651C141.12 189.762 131.537 182.919 121.97 176.055C117.184 172.621 112.39 169.198 107.599 165.772C105.389 164.193 103.156 162.648 100.912 161.118C98.4346 159.428 95.886 157.451 93.1462 156.223C93.1101 156.207 93.0699 156.244 93.0998 156.277C95.0935 158.466 97.7845 160.237 100.14 162.018C102.414 163.737 104.704 165.434 107.016 167.102C111.706 170.485 116.395 173.871 121.091 177.247C130.568 184.06 140.03 190.892 149.525 197.681C150.276 198.218 151.505 197.254 150.669 196.651Z" fill="white"/>
<path d="M134.326 207.304C134.32 207.3 134.317 207.296 134.311 207.292C132.401 205.955 130.041 204.604 127.783 203.857C129.912 201.415 132.201 199.008 134.05 196.371C134.68 197.335 135.575 198.114 136.413 198.892C137.328 199.741 138.227 200.69 139.296 201.342C139.363 201.383 139.431 201.409 139.498 201.422C137.767 203.377 136.046 205.34 134.326 207.304ZM127.773 214.821C126.967 213.923 125.799 213.312 124.787 212.675C123.81 212.061 122.833 211.377 121.763 210.93C123.533 208.848 125.301 206.764 127.071 204.682C127.224 204.501 127.382 204.321 127.538 204.14C128.327 204.855 129.241 205.412 130.127 206.002C131.248 206.748 132.38 207.54 133.592 208.131L133.597 208.133C131.651 210.358 129.71 212.588 127.773 214.821ZM126.931 215.787C124.865 218.169 122.808 220.558 120.751 222.947C120.737 222.928 120.724 222.91 120.707 222.892C119.894 222.031 118.725 221.401 117.75 220.73C116.855 220.113 115.92 219.358 114.875 219.016C116.652 216.946 118.414 214.864 120.179 212.793C120.635 212.258 121.089 211.722 121.545 211.186C122.234 211.992 123.115 212.646 123.929 213.314C124.9 214.111 125.921 215.124 127.086 215.608C127.035 215.668 126.983 215.728 126.931 215.787ZM140.124 201.113C140.224 200.924 140.222 200.683 140.039 200.476C139.197 199.533 138.04 198.806 137.025 198.056C136.109 197.381 135.193 196.675 134.144 196.222C134.406 195.679 133.54 195.213 133.12 195.627C130.721 197.992 128.678 200.803 126.511 203.381C124.166 206.172 121.821 208.962 119.476 211.753C114.875 217.228 110.199 222.703 105.907 228.424C105.759 228.621 106.1 228.825 106.252 228.665C109.166 225.591 111.97 222.399 114.736 219.177C115.308 220.086 116.308 220.789 117.116 221.469C118.034 222.241 118.929 223.163 119.988 223.731C120.007 223.741 120.027 223.748 120.047 223.756C118.264 225.784 116.391 227.807 114.904 230.044C114.84 230.141 114.988 230.217 115.062 230.153C117.511 228.04 119.611 225.452 121.785 223.064C123.84 220.808 125.893 218.55 127.94 216.285C132.17 211.606 136.386 206.914 140.568 202.191C140.981 201.724 140.581 201.174 140.124 201.113Z" fill="white"/>
<path d="M113.659 230.578C112.958 229.738 111.851 229.23 110.922 228.667C109.915 228.056 108.924 227.429 107.785 227.104C107.763 227.098 107.737 227.121 107.752 227.142C108.423 228.076 109.348 228.751 110.251 229.45C111.114 230.119 111.988 230.956 113.022 231.325C113.411 231.464 113.977 230.959 113.659 230.578Z" fill="#5D5D5D"/>
<path d="M155.822 72.1245C155.748 71.2452 154.715 70.6729 153.973 71.0334L153.598 70.9054C153.393 70.835 153.125 70.9033 152.925 71.0475C152.311 70.4818 151.657 69.9702 150.952 69.6392C150.872 69.6023 150.735 69.658 150.772 69.7634C151.22 71.0353 152.3 72.1883 153.244 73.2268C151.941 74.316 150.872 75.724 149.762 76.9924C148.806 78.0837 147.728 79.1817 146.915 80.4061C143.561 81.9645 140.31 83.7752 137.033 85.4762C132.984 87.5775 128.939 89.6854 124.891 91.7904L113.02 97.964C111.043 98.9923 109.073 100.034 107.116 101.1C106.152 101.624 105.126 102.137 104.148 102.715C102.032 102.726 99.9443 104.499 98.9777 106.246C97.1377 109.568 97.5706 113.976 97.5344 117.63C97.4911 122.033 97.3869 126.435 97.3995 130.838C97.4059 133.039 97.4259 135.242 97.4656 137.442C97.4854 138.543 97.5223 139.644 97.5523 140.744C97.5803 141.772 97.4837 142.831 97.9097 143.777C97.9601 143.888 98.1086 143.888 98.1591 143.777C98.8287 142.304 98.5432 140.246 98.5927 138.643C98.6481 136.843 98.6612 135.041 98.6857 133.24C98.7373 129.437 98.7159 125.635 98.6669 121.832C98.6207 118.285 98.3097 114.584 98.6548 111.052C98.8294 109.263 99.2699 107.414 100.419 105.987C100.906 105.381 101.424 104.947 101.984 104.634C102.668 104.48 103.34 104.256 103.999 103.987C104.422 103.925 104.866 103.89 105.335 103.873C105.696 103.86 105.977 103.437 105.795 103.164C106.381 102.875 106.96 102.578 107.532 102.297C109.537 101.314 111.524 100.295 113.505 99.2669C117.555 97.1657 121.604 95.0644 125.653 92.9631C129.613 90.9085 133.573 88.8561 137.531 86.7991C141.349 84.8154 145.273 82.948 148.95 80.7059C149.371 80.5027 149.791 80.2966 150.209 80.0881C151.349 79.5206 152.579 79.0139 153.553 78.1822C153.618 78.1263 153.541 78.0511 153.475 78.063C152.192 78.2984 150.983 78.9273 149.795 79.4499C149.735 79.4761 149.676 79.5025 149.617 79.5287C149.46 79.4171 149.238 79.3745 149.013 79.4689C148.836 79.5434 148.662 79.6241 148.486 79.7002C149.269 78.9856 150.01 78.2137 150.756 77.4919C151.935 76.3497 153.252 75.2417 154.236 73.911C154.644 73.8696 155.052 73.5388 154.887 73.1207C155.011 73.0826 155.131 73.0212 155.243 72.9298C155.316 72.8708 155.359 72.8013 155.389 72.7292C155.64 72.6202 155.844 72.3953 155.822 72.1245Z" fill="#5D5D5D"/>
<path d="M214.537 98.3467C214.565 98.2432 214.573 98.1271 214.55 97.9957C214.441 97.3804 213.968 96.9851 213.413 96.8499C213.53 96.6039 213.537 96.3038 213.358 95.9787C208.936 87.9214 202.558 80.6683 195.655 74.6528C188.627 68.5291 180.508 63.3181 171.768 60.0137C168.31 58.7065 164.359 57.546 160.56 57.7216C160.465 57.3223 159.985 57.0515 159.552 57.302C159.253 57.4758 158.973 57.6885 158.706 57.9226C158.566 57.9464 158.428 57.9724 158.289 58.0009C158.288 57.9886 158.291 57.9748 158.289 57.9629C158.321 57.8891 158.341 57.8118 158.346 57.7339C158.383 57.6866 158.422 57.6402 158.46 57.5931C158.614 57.3998 158.342 57.1999 158.146 57.258C158.07 57.1964 157.973 57.1495 157.852 57.1271C155.845 56.7611 153.542 57.1593 151.481 57.2918C151.304 57.2661 151.155 57.2428 151.046 57.2206C150.596 57.13 150.268 57.4146 150.188 57.7375C149.618 57.3539 149.05 56.9684 148.469 56.6029C148.438 56.5838 148.378 56.6136 148.395 56.6538C148.973 58.0155 149.909 59.1137 151.045 60.0594C151.977 60.8354 153.204 61.7582 154.448 62.0221C154.116 62.628 153.786 63.2296 153.445 63.8107C152.362 65.6533 151.251 67.5063 150.546 69.5319C150.532 69.5714 150.591 69.5969 150.617 69.5695C152.177 67.9178 153.385 65.9838 154.605 64.0767C154.61 64.0684 154.616 64.0603 154.621 64.0525C154.635 64.0437 154.65 64.0349 154.665 64.0237C155.175 63.613 155.59 63.1201 155.996 62.6137C156.453 62.2382 156.907 61.8577 157.35 61.4629C158.072 60.8202 158.968 60.1234 159.672 59.3398C163.227 59.6958 166.708 60.3266 170.137 61.566C174.518 63.1499 178.7 65.3563 182.677 67.7695C190.202 72.3349 197.011 78.1176 202.736 84.8033C205 87.4476 207.012 90.2392 208.922 93.116C208.035 94.0916 207.507 95.5283 206.774 96.5801C206.623 96.7959 206.73 97.1143 206.961 97.2242L206.963 97.225C206.812 97.2485 206.662 97.2792 206.513 97.3225C206.481 97.3316 206.46 97.3732 206.491 97.398C207.417 98.1461 208.691 98.3308 209.825 98.6135C211.211 98.959 212.632 99.3605 214.059 99.4597C214.757 99.5085 214.944 98.7337 214.537 98.3467Z" fill="#5D5D5D"/>
<path d="M235.74 62.9466C235.704 63.014 235.669 63.0811 235.633 63.1482C235.62 63.1734 235.631 63.2108 235.663 63.2148C234.94 63.1215 233.375 66.8219 233.055 67.4007C232.217 68.9165 231.355 70.4207 230.496 71.9242C228.732 75.0102 226.882 78.0562 224.974 81.0555C223.116 83.9777 221.186 86.8564 219.165 89.669C218.154 91.0751 217.121 92.4651 216.067 93.8387C214.98 95.2541 213.652 96.6174 212.832 98.2066C212.374 99.092 213.514 99.7243 214.207 99.1622C215.538 98.085 216.543 96.5908 217.586 95.2465C218.704 93.8061 219.797 92.3468 220.866 90.87C222.95 87.9904 224.945 85.0462 226.819 82.0259C228.696 79.003 230.433 75.9113 232.056 72.7452C232.832 71.2315 233.557 69.6963 234.261 68.1476C234.998 66.5242 235.863 64.8737 236.148 63.1015C236.183 62.8812 235.854 62.7298 235.74 62.9466Z" fill="#5D5D5D"/>
<path d="M208.954 92.6655C207.843 93.5124 207.22 95.0685 206.467 96.2253C205.589 97.5736 204.709 98.9231 203.766 100.227C201.816 102.924 199.634 105.452 197.282 107.805C196.51 108.577 197.789 109.601 198.49 108.893C200.862 106.494 203.019 103.921 204.925 101.137C205.882 99.7393 206.788 98.3089 207.569 96.805C208.183 95.6218 209.201 94.1081 209.15 92.7383C209.146 92.6367 209.024 92.6122 208.954 92.6655Z" fill="#5D5D5D"/>
<path d="M197.371 104.803C197.049 104.745 196.771 104.64 196.54 104.479C196.308 104.126 196.074 103.772 195.842 103.418C195.718 103.231 195.535 103.117 195.334 103.067C195.427 102.811 195.499 102.553 195.516 102.27C195.517 102.245 195.482 102.228 195.462 102.242C195.128 102.474 194.871 102.757 194.622 103.079C194.59 103.12 194.556 103.158 194.524 103.199C194.386 103.287 194.276 103.408 194.218 103.558C194.198 103.581 194.178 103.604 194.157 103.626C193.631 103.66 193.191 104.199 193.3 104.627C193.172 104.978 193.361 105.36 193.78 105.475C194.493 105.669 195.207 105.862 195.921 106.06C196.295 106.237 196.707 106.343 197.137 106.364C198.086 106.411 198.365 104.971 197.371 104.803Z" fill="#5D5D5D"/>
<path d="M179.522 140.757C179.365 142.093 178.976 143.425 178.416 144.647C177.579 146.475 176.311 147.818 175.103 149.299C173.849 148.44 172.549 147.456 171.165 146.775C174.693 145.223 177.569 142.027 179.516 138.778C179.552 139.434 179.599 140.094 179.522 140.757ZM198.085 107.805C197.903 107.651 197.701 107.523 197.487 107.411C197.475 107.269 197.412 107.132 197.282 107.026C196.681 106.538 195.836 106.379 195.106 106.144C194.817 106.051 194.475 105.91 194.13 105.811C194.127 105.785 194.126 105.758 194.123 105.732C194.069 105.283 193.672 104.983 193.261 104.921C193.563 104.534 193.855 104.138 194.119 103.72C194.384 103.301 193.752 102.944 193.431 103.243C191.009 105.492 189.495 108.511 187.428 111.049C187.405 111.077 187.457 111.1 187.477 111.076C188.605 109.756 189.896 108.561 191.126 107.316C191.158 107.517 191.385 107.676 191.592 107.537C191.735 107.443 191.857 107.333 191.972 107.217C191.753 108.54 191.599 109.874 191.183 111.178C190.551 113.162 189.655 115.053 188.527 116.803C186.947 119.254 184.882 121.593 182.561 123.504C181.899 123.179 180.933 123.429 180.997 124.306C181.007 124.432 181.013 124.557 181.021 124.683C180.637 124.955 180.248 125.216 179.854 125.461C179.807 125.49 179.839 125.563 179.892 125.544C180.286 125.402 180.669 125.249 181.047 125.09C181.289 129.488 180.763 133.576 178.6 137.558C176.583 141.273 173.677 143.873 170.512 146.482C170.386 146.43 170.26 146.374 170.132 146.329C170.067 146.306 169.994 146.382 170.034 146.443C170.095 146.536 170.166 146.623 170.232 146.713C170.011 146.895 169.789 147.076 169.566 147.259C169.526 147.291 169.573 147.346 169.615 147.334C169.907 147.251 170.194 147.155 170.479 147.05C171.559 148.393 173.093 149.5 174.366 150.606C175.962 151.991 177.61 153.318 179.267 154.629C180.931 155.946 182.606 157.248 184.276 158.557C185.595 159.591 186.915 160.842 188.354 161.774C173.657 179.864 158.812 197.833 144.099 215.909C141.981 218.511 139.874 221.121 137.789 223.75C135.724 226.355 133.547 228.927 131.794 231.758C131.462 232.294 132.263 232.756 132.674 232.368C132.884 232.17 133.092 231.968 133.3 231.765C133.38 231.894 133.515 231.998 133.65 232.041C136.143 232.823 139.042 232.577 141.628 232.58C144.539 232.583 147.45 232.548 150.361 232.521C153.171 232.495 155.982 232.463 158.792 232.45C161.754 232.437 164.584 232.26 167.525 231.993C167.936 231.956 167.935 231.452 167.525 231.411C164.685 231.129 161.957 230.92 159.094 230.882C156.182 230.844 153.272 230.787 150.361 230.734C147.55 230.684 144.74 230.633 141.929 230.603C139.609 230.578 137.02 230.358 134.689 230.815C134.788 230.584 134.887 230.345 134.932 230.099C138.172 226.682 141.101 222.879 144.072 219.277C147.832 214.717 151.599 210.163 155.345 205.591C162.834 196.454 170.323 187.316 177.811 178.178C182.074 172.977 186.341 167.781 190.624 162.597C190.82 162.36 190.88 162.129 190.846 161.92C191.006 161.606 190.991 161.207 190.665 160.84C189.239 159.234 187.109 158.036 185.386 156.754C183.676 155.481 181.973 154.197 180.253 152.939C178.824 151.895 177.387 150.861 175.926 149.863C177.745 148.836 179.216 146.882 180.068 145.149C181.145 142.958 182.22 139.443 181.265 137.045C181.159 136.779 180.957 136.608 180.727 136.527C182.524 132.791 183.663 128.362 183.152 124.306C183.142 124.232 183.125 124.163 183.103 124.097C185.775 122.626 188.018 120.626 189.862 118.007C191.105 116.242 192.119 114.309 192.857 112.279C193.373 110.858 193.944 109.141 194.117 107.502C194.227 107.557 194.338 107.612 194.445 107.667C195.431 108.17 196.462 108.83 197.577 108.908C198.147 108.948 198.552 108.202 198.085 107.805Z" fill="#5D5D5D"/>
<path d="M67.7873 177.684C74.1804 170.036 80.7428 162.535 87.4706 155.181C91.2569 151.041 95.1265 146.983 98.9761 142.904C99.6988 142.138 99.1399 141.233 98.3843 141.002C98.3434 138.326 97.7789 135.568 97.609 132.899C97.4291 130.069 97.3679 127.236 97.3925 124.401C97.4167 121.57 97.5695 118.746 97.763 115.922C97.9717 112.871 97.9705 109.667 98.4514 106.654C98.4552 106.629 98.415 106.619 98.4098 106.644C97.7589 109.569 96.8537 112.355 96.4111 115.34C95.9799 118.246 95.7219 121.174 95.5708 124.108C95.4202 127.035 95.4097 129.97 95.507 132.899C95.6044 135.816 95.5342 139.082 96.3171 141.908C96.3397 141.989 96.374 142.061 96.4132 142.127C83.0701 156.071 70.3348 170.756 58.3829 185.901C54.9188 190.291 51.0663 194.741 48.3487 199.643C48.2143 199.885 48.3642 200.111 48.5741 200.19C48.5662 200.216 48.5553 200.241 48.5476 200.267C48.497 200.443 48.5017 200.595 48.5405 200.727C48.536 200.743 48.5307 200.759 48.5258 200.774C48.3194 201.422 49.0405 201.806 49.5857 201.651C50.4676 202.826 51.5384 203.881 52.5386 204.949C54.0685 206.583 55.6781 208.142 57.3146 209.669C60.6383 212.769 64.0988 215.783 67.7338 218.514C73.9062 223.151 80.4337 227.148 87.3433 230.524C86.4493 230.539 85.5569 230.563 84.6769 230.561C82.1611 230.557 79.6453 230.574 77.1297 230.586C74.7153 230.597 72.2976 230.59 69.8843 230.68C67.6132 230.764 65.0502 230.626 62.8859 231.402C62.6908 231.472 62.691 231.693 62.8859 231.764C64.9641 232.514 67.4009 232.397 69.5823 232.487C72.0962 232.591 74.6144 232.595 77.1297 232.612C79.5449 232.628 81.96 232.652 84.3749 232.653C86.7598 232.654 89.2373 232.846 91.6029 232.543C92.0843 232.482 92.3333 232.087 92.3559 231.676C92.5658 231.292 92.5082 230.818 91.9385 230.541C83.9285 226.644 76.1883 221.977 69.0493 216.648C65.5138 214.009 62.0825 211.289 58.826 208.308C57.173 206.795 55.5703 205.229 53.9731 203.658C52.848 202.551 51.804 201.37 50.6242 200.344C51.0891 199.587 51.5498 198.826 51.9927 198.057C52.1781 197.737 51.9106 197.414 51.6089 197.358C53.9562 194.695 56.1081 191.816 58.3483 189.101C61.491 185.292 64.6205 181.473 67.7873 177.684Z" fill="#5D5D5D"/>
</svg>
