<svg width="132" height="144" viewBox="0 0 132 144" fill="none" xmlns="http://www.w3.org/2000/svg">
<path d="M63.7569 143.323V78.3994L1.74463 41.6523V106.576L63.7569 143.323Z" fill="#008753"/>
<path d="M63.7578 78.3981L130.268 38.8271V103.763L63.7578 143.322V78.3981Z" fill="#008753"/>
<path opacity="0.15" d="M63.7578 78.3981L130.268 38.8271V103.763L63.7578 143.322V78.3981Z" fill="white"/>
<path d="M63.7562 78.3987L0 40.6113L68.2543 0L131.998 37.7875L63.7562 78.3987Z" fill="#008753"/>
<path opacity="0.3" d="M63.7562 78.3987L0 40.6113L68.2543 0L131.998 37.7875L63.7562 78.3987Z" fill="white"/>
<path d="M63.7562 78.3988V89.9914L0 52.2163V40.6113L63.7562 78.3988Z" fill="#008753"/>
<path d="M132 37.7871L63.7578 78.3984V89.991L132 49.3921V37.7871Z" fill="#008753"/>
<path opacity="0.15" d="M132 37.7871L63.7578 78.3984V89.991L132 49.3921V37.7871Z" fill="white"/>
<path opacity="0.1" d="M1.80322 53.2447V55.7961L63.8154 92.5432V89.9919L1.80322 53.2447ZM130.326 50.4209L63.8154 90.0538V92.6051L130.326 52.9723V50.4209Z" fill="black"/>
<path d="M45.5107 45.9244L54.6153 51.3368L86.4754 32.3873L77.3708 26.9873L45.5107 45.9244Z" fill="#008753"/>
<path opacity="0.2" d="M84.2035 33.7497L86.4767 32.3873L77.3721 26.9873L77.3841 29.712L84.2035 33.7497Z" fill="black"/>
<path opacity="0.1" d="M47.7959 47.2743L77.3708 29.6873V26.9873L45.5107 45.9244L47.7959 47.2743Z" fill="black"/>
<path d="M77.9358 115.976L73.6421 102.005L76.9255 100.061L78.7777 106.786C79.5234 109.436 79.812 110.501 79.824 110.6H79.8842C79.8842 110.514 80.1849 109.065 80.9065 105.646L82.7827 96.6176L85.9098 94.7598L81.6161 113.845L77.9358 115.976Z" fill="#FAFAFA"/>
<path d="M92.4197 90.5114C96.1 88.3316 98.758 90.2885 98.758 95.3417C98.758 100.395 96.1 105.51 92.4197 107.727C88.7394 109.944 86.0693 107.95 86.0693 102.909C86.0693 97.8683 88.7394 92.7036 92.4197 90.5114ZM92.4197 103.949C93.5082 103.191 94.3938 102.163 94.995 100.959C95.5961 99.756 95.8934 98.4161 95.8595 97.0632C95.8595 94.0908 94.4162 93.0628 92.4197 94.2394C91.3285 95.0008 90.4413 96.0332 89.8401 97.2411C89.2389 98.449 88.943 99.7935 88.9799 101.15C88.9799 104.098 90.4232 105.138 92.4197 103.949Z" fill="#FAFAFA"/>
<path d="M105.936 86.4862V99.3297L103.037 101.051V88.2078L99.3691 90.3999V86.6844L109.604 80.5908V84.3064L105.936 86.4862Z" fill="#FAFAFA"/>
<path d="M111.106 79.7357L119.874 74.5215V78.2371L113.993 81.7297V84.566L118.323 81.9898V85.2967L113.993 87.8728V90.8948L120.007 87.3402V91.0558L111.155 96.3196L111.106 79.7357Z" fill="#FAFAFA"/>
<path d="M89.0028 21.3722L86.1403 27.5153L58.1892 44.1859L52.356 40.718L68.0154 6.6709L89.0028 21.3722Z" fill="#FAFAFA"/>
</svg>
