<svg width="229" height="229" viewBox="0 0 229 229" fill="none" xmlns="http://www.w3.org/2000/svg">
<path d="M199.177 63.6513C199.177 63.6513 186.821 162.637 166.514 184.911C142.107 211.618 124.404 207.711 114.569 221.508C104.706 207.656 87.0037 211.645 62.5966 184.911C42.2619 162.748 29.9337 63.6513 29.9337 63.6513C83.4853 37.6373 114.569 8.52051 114.569 8.52051C115.511 9.43474 146.484 38.0529 199.177 63.6513Z" fill="#008753"/>
<path opacity="0.1" d="M114.459 8.54824V221.508C104.596 207.656 86.8932 211.645 62.4861 184.911C42.1515 162.748 29.8232 63.6513 29.8232 63.6513C83.3748 37.6373 114.459 8.52051 114.459 8.52051V8.54824Z" fill="black"/>
<path d="M43.0376 71.6301C43.0376 71.6301 53.482 155.24 70.7415 174.134C91.3531 196.741 106.313 193.527 114.652 205.08C122.963 193.444 137.923 196.768 158.563 174.134C175.711 155.323 186.128 71.6301 186.128 71.6301C140.915 49.6609 114.652 25.0322 114.652 25.0322C114.652 25.0322 88.278 49.6609 43.0376 71.6301Z" fill="#008753"/>
<path opacity="0.3" d="M186.045 71.6298C186.045 71.6298 175.601 155.24 158.341 174.134C137.73 196.713 122.797 193.527 114.458 205.024V25.0596C115.345 25.8353 141.497 49.993 186.045 71.6298Z" fill="white"/>
<path d="M132.795 100.448V115.772H127.404V100.448C127.491 98.7401 127.229 97.0322 126.636 95.4283C126.042 93.8244 125.128 92.358 123.95 91.1183C122.772 89.8785 121.354 88.8914 119.782 88.2169C118.211 87.5423 116.518 87.1945 114.808 87.1945C113.098 87.1945 111.406 87.5423 109.834 88.2169C108.262 88.8914 106.844 89.8785 105.666 91.1183C104.488 92.358 103.574 93.8244 102.981 95.4283C102.387 97.0322 102.126 98.7401 102.213 100.448V115.772H96.6909V100.448C96.5075 97.9569 96.8398 95.4545 97.6672 93.0975C98.4946 90.7405 99.7992 88.5796 101.5 86.7495C103.2 84.9195 105.259 83.4598 107.549 82.4617C109.839 81.4635 112.31 80.9482 114.808 80.9482C117.306 80.9482 119.777 81.4635 122.067 82.4617C124.357 83.4598 126.417 84.9195 128.117 86.7495C129.817 88.5796 131.122 90.7405 131.949 93.0975C132.776 95.4545 133.109 97.9569 132.926 100.448H132.795Z" fill="white"/>
<path d="M89.4697 104.271V150.013H139.885V104.271H89.4697ZM118.876 138.839H109.923L112.047 128.808C111.383 128.398 110.837 127.821 110.465 127.134C110.093 126.448 109.906 125.676 109.924 124.895C109.943 124.115 110.165 123.352 110.569 122.684C110.973 122.016 111.544 121.465 112.227 121.086C112.91 120.707 113.68 120.513 114.461 120.524C115.242 120.535 116.006 120.749 116.678 121.147C117.35 121.544 117.907 122.111 118.292 122.79C118.678 123.469 118.879 124.237 118.876 125.018C118.876 125.775 118.684 126.52 118.319 127.183C117.953 127.845 117.425 128.405 116.785 128.808L118.876 138.839Z" fill="white"/>
</svg>
